<svg viewBox="0 0 37.458 36.143" fill="none" xmlns="http://www.w3.org/2000/svg">
    <path fill-rule="evenodd" clip-rule="evenodd"
        d="M0.0415146 3.79152C0.30419 0.996547 2.15397 0.000698886 3.7973 0.000698886L3.79694 0C4.84659 0 5.87228 0.366428 6.73731 0.724511C10.2717 2.1881 13.7808 6.03477 15.2454 9.93735C15.3658 9.91028 15.4866 9.88461 15.6077 9.8603C15.6864 9.23402 16.0355 8.6514 16.5952 8.29399C16.9457 8.07056 17.3506 7.95222 17.7659 7.95222C18.2118 7.95222 18.6476 8.0917 19.0102 8.34364C19.259 8.24715 19.5255 8.19615 19.7975 8.19615C19.9592 8.19615 20.1206 8.21453 20.2777 8.24994C21.0019 8.41374 21.7236 8.75306 22.4343 9.26278C23.9804 5.6996 27.4045 2.07463 30.6641 0.72485C31.8536 0.232475 32.7509 0.0128341 33.5729 0.0128341C34.6728 0.0128341 37.252 0.462175 37.4491 4.62323C37.6503 8.87174 34.1558 14.2872 31.9035 16.7247C33.4535 19.0676 34.3494 21.6422 34.4438 24.059C34.4525 24.28 34.4397 24.5725 34.4136 25.0267C35.2606 25.6555 35.6992 26.5326 35.6628 27.5524C35.6333 28.3741 35.2141 29.0889 34.5507 29.5081C34.3397 30.2447 33.9445 30.8356 33.7526 31.1226C30.6377 35.7763 21.276 36.1379 18.4811 36.1379C15.2388 36.1379 12.0799 35.7323 9.58573 34.9956C6.36535 34.0445 4.24006 32.5803 3.26884 30.6437C3.06621 30.2391 2.92323 29.862 2.83754 29.5049C2.63629 29.3703 2.45724 29.2041 2.30631 29.0108C2.24523 28.9328 2.18832 28.8488 2.13766 28.761C1.74349 28.0799 1.65467 27.303 1.88678 26.5729C2.07938 25.9684 2.47633 25.4455 3.06966 25.0128C3.03393 24.3258 3.01796 23.8633 3.04746 23.5395C3.27579 21.0416 4.08391 18.6699 5.39587 16.6283C4.78343 15.9027 3.73796 14.5713 2.7369 12.9221C0.694888 9.55843 -0.211778 6.48655 0.0415146 3.79152Z"
        fill="#20185B"></path>
    <path
        d="M33.4875 27.4747C33.5191 26.5954 32.2311 26.4181 32.1877 26.3373C32.1356 26.2408 32.2838 24.525 32.2689 24.1436C32.053 18.6272 26.6973 12.8 22.8038 12.5664C22.6709 12.5585 21.4228 10.7403 19.7978 10.3728C19.9866 10.9238 19.9176 11.4936 19.6355 12.0789L17.7669 10.1292C17.7669 10.1292 18.9946 13.2739 18.0921 14.435L17.6857 11.7541C11.0364 12.3728 5.83651 16.9402 5.21471 23.7377C5.17412 24.1808 5.33512 26.1364 5.29591 26.2561C5.26086 26.363 3.54224 26.8425 4.02143 27.6711C4.05266 27.711 4.10505 27.727 4.17237 27.727C4.4274 27.727 4.89653 27.5004 5.24247 27.5004C5.3601 27.5004 5.4635 27.5264 5.53949 27.5968C4.88751 28.4279 4.69215 28.6267 5.21437 29.6683C6.65436 32.54 12.5417 33.9616 18.4807 33.9616C24.2865 33.9616 30.1422 32.6032 31.9437 29.9119C32.2342 29.4782 32.7057 28.7245 32.4313 28.2058C32.366 28.0823 31.6544 27.7183 31.9031 27.3526C32.1176 27.4282 32.764 27.7235 33.1617 27.7235C33.3487 27.7235 33.4809 27.6586 33.4875 27.4747Z"
        fill="#FFC0C0"></path>
    <path
        d="M27.1096 27.5969C30.3258 27.3221 30.9431 30.6628 27.9219 30.8467C24.9288 31.0289 24.1619 27.8488 27.1096 27.5969Z"
        fill="#F6A7A8"></path>
    <path
        d="M9.72345 27.5968C12.6381 27.4341 13.0802 30.3849 10.4546 30.7655C6.77997 31.2978 6.63597 27.7693 9.72345 27.5968Z"
        fill="#F6A7A8"></path>
    <path
        d="M20.6914 13.054C20.8885 13.1234 20.3024 14.1331 20.1633 14.232L21.4225 13.7851C21.3736 14.4894 18.691 15.2837 18.5383 14.9631C19.412 14.538 20.0803 13.7972 20.6914 13.054Z"
        fill="#20185B"></path>
    <path
        d="M26.0536 21.747C29.3757 21.2029 30.2948 27.0173 26.6223 27.2717C22.9706 27.5246 23.5244 22.1613 26.0536 21.747Z"
        fill="#20185B"></path>
    <path
        d="M26.4596 22.8032C27.7344 22.5218 27.8444 24.5426 26.9471 24.7529C25.6438 25.0586 25.5543 23.0031 26.4596 22.8032Z"
        fill="white"></path>
    <path
        d="M10.5357 21.747C14.1881 21.1814 14.821 28.0098 10.5357 27.1905C7.58773 26.627 8.26401 22.0989 10.5357 21.747Z"
        fill="#20185B"></path>
    <path
        d="M10.4546 22.8033C11.9442 22.4379 11.8731 25.167 10.4546 24.753C9.7804 24.5563 9.72662 22.9817 10.4546 22.8033Z"
        fill="white"></path>
    <path
        d="M18.4165 26.1343C19.2268 26.0267 20.5418 26.4046 19.6758 27.3935C19.3333 27.7849 18.8059 27.5153 18.9447 28.2058C19.0755 28.8574 20.327 28.9057 20.732 28.3682C20.843 28.2207 20.7313 27.4462 21.2195 27.8807C21.4166 28.5316 20.6185 28.8623 20.4884 29.0993C20.3309 29.3859 20.3461 30.0837 20.0821 30.4803C19.5383 31.2967 18.2181 31.3727 17.5636 30.6427C17.1497 30.1812 17.243 29.5087 17.0761 29.1801C16.9627 28.9567 15.6483 28.0215 16.548 27.7582C16.7926 29.0358 18.4873 29.1215 18.6199 27.7988C17.9651 27.5666 17.5241 27.2721 17.6448 26.499C17.7417 26.1988 18.2951 26.1496 18.4165 26.1332V26.1343Z"
        fill="#20185B"></path>
    <path
        d="M19.9197 30.1153C19.1778 29.8672 18.3173 29.693 17.6448 30.1965C17.4752 29.8665 17.4287 29.6271 17.4012 29.2621C17.7906 29.4411 18.6573 28.7339 18.7822 28.7339C18.8922 28.7339 18.9603 28.9945 19.3916 29.1403C19.8565 29.2971 20.4526 28.8762 19.9197 30.1153Z"
        fill="#CC3A4D"></path>
    <path
        d="M19.9196 30.1152C19.4935 31.1059 18.1368 31.1527 17.6448 30.1964C18.3172 29.6926 19.1778 29.8671 19.9196 30.1152Z"
        fill="#EA767E"></path>
    <path
        d="M18.0917 14.435C19.7805 12.8756 17.7666 10.1292 17.7666 10.1292C17.7666 10.1292 18.9942 13.2739 18.0917 14.435Z"
        fill="#FFDEDE"></path>
    <path
        d="M19.8999 12.3048C20.5338 11.2993 19.7975 10.3728 19.7975 10.3728C19.9863 10.9238 19.9172 11.4936 19.6351 12.0789C19.6351 12.0789 19.7888 12.2198 19.8999 12.3048Z"
        fill="#FFDEDE"></path>
    <path
        d="M17.8016 12.5217L17.6854 11.7542C14.0636 12.0911 10.8744 13.6015 8.61795 16.0037L8.60754 16.0384C8.60754 16.0384 12.6458 12.555 17.8016 12.5217Z"
        fill="#FFDEDE"></path>
    <path
        d="M22.8038 12.5664C22.6709 12.5584 27.1432 14.6657 28.7487 16.1848C26.9253 14.1119 24.6931 12.6795 22.8038 12.5664Z"
        fill="#FFDEDE"></path>
    <path
        d="M18.761 33.4602C6.77129 33.5754 4.91699 28.7343 4.91699 28.7343V28.787C4.92775 29.0157 5.02213 29.2849 5.21436 29.6683C6.65435 32.54 12.5417 33.9616 18.4807 33.9616C24.2865 33.9616 30.1422 32.6032 31.9437 29.9119C32.0975 29.6822 32.2994 29.3626 32.417 29.0358C29.3965 32.676 23.2549 33.4217 18.761 33.4602Z"
        fill="#F6A7A8"></path>
    <path
        d="M7.97364 14.07C8.12458 14.2258 8.27275 14.3802 8.40079 14.5163C9.04861 13.9118 9.75819 13.3674 10.5205 12.8861L10.5129 12.8001C10.2783 10.224 9.14958 7.74586 7.24046 5.60599C7.04025 5.38149 6.81194 5.18337 6.57113 5.00293C6.56974 5.00189 6.5687 5.0012 6.56731 5.00016C5.90838 4.50674 5.28103 4.03727 4.54924 3.81104C3.81398 7.95891 6.25537 11.892 7.36364 13.4191C7.42437 13.5027 7.72867 13.8174 7.9733 14.0704L7.97364 14.07Z"
        fill="#EA767E"></path>
    <path
        d="M11.6096 12.2615L11.5514 12.2824C11.1211 9.07275 9.72829 6.87945 7.16406 5.01093C9.16236 7.1147 10.5611 9.77053 10.8484 12.6835C11.0965 12.5357 11.3508 12.3958 11.6096 12.2615Z"
        fill="#FFDEDE"></path>
    <path
        d="M8.15161 14.7577C7.78103 14.3639 7.19705 13.7799 7.08289 13.6227C5.01139 10.7687 3.49887 6.92518 4.27994 3.38592C5.4014 3.60382 6.26678 4.35678 7.16409 5.01085C9.72831 6.87903 11.1211 9.07267 11.5514 12.2823L11.6097 12.2615C12.1999 11.9558 12.8161 11.6848 13.4574 11.453C12.456 8.01888 9.19777 4.09932 5.90487 2.73567C4.1977 2.02851 2.43467 1.58853 2.20808 3.99488C1.73133 9.06504 6.78206 14.9305 7.37228 15.587C7.62037 15.3 7.88027 15.0238 8.15161 14.7577Z"
        fill="#FFC0C0"></path>
    <path
        d="M7.97361 14.07C8.12594 14.2275 8.27653 14.384 8.40526 14.5211C8.67764 14.266 8.95697 14.0176 9.25086 13.7841C8.95558 11.1577 7.43682 6.82698 4.53394 6.90679C4.97495 9.80863 6.53847 12.2816 7.36395 13.419C7.42468 13.5026 7.72898 13.817 7.97361 14.07Z"
        fill="#F6A7A8"></path>
    <path
        d="M8.15155 14.7577C7.88229 14.4715 7.50234 14.087 7.26917 13.8361C7.50165 14.0863 7.88229 14.4715 8.15155 14.7577Z"
        fill="#F6A7A8"></path>
    <path d="M4.19629 6.93353L4.19664 6.93492L4.19629 6.93353Z" fill="#F6A7A8"></path>
    <path
        d="M6.1623 12.2161C6.12969 12.1609 6.09672 12.1064 6.06445 12.0509C6.09638 12.1064 6.12969 12.1609 6.1623 12.2161Z"
        fill="#F6A7A8"></path>
    <path
        d="M7.08289 13.6227C7.09746 13.6432 7.12071 13.671 7.14985 13.7043C7.12071 13.671 7.09781 13.6429 7.08289 13.6227Z"
        fill="#F6A7A8"></path>
    <path
        d="M7.16895 13.7255C7.19497 13.755 7.22377 13.7865 7.25743 13.8233C7.22342 13.7865 7.19532 13.7553 7.16895 13.7255Z"
        fill="#F6A7A8"></path>
    <path
        d="M6.62454 12.9569C6.58359 12.8951 6.54403 12.8323 6.50378 12.7695C6.54403 12.832 6.58359 12.8948 6.62454 12.9569Z"
        fill="#F6A7A8"></path>
    <path
        d="M29.4882 14.07C29.3372 14.2258 29.1891 14.3802 29.061 14.5163C28.4132 13.9118 27.7036 13.3674 26.9413 12.8861L26.9489 12.8001C27.1835 10.224 28.3122 7.74586 30.2213 5.60599C30.4216 5.38149 30.6499 5.18337 30.8907 5.00293C30.8921 5.00189 30.8931 5.0012 30.8945 5.00016C31.5534 4.50674 32.1808 4.03727 32.9126 3.81104C33.6478 7.95891 31.2064 11.892 30.0982 13.4191C30.0374 13.5027 29.7331 13.8174 29.4885 14.0704L29.4882 14.07Z"
        fill="#EA767E"></path>
    <path
        d="M25.8521 12.2615L25.9103 12.2824C26.3406 9.07275 27.7334 6.87945 30.2976 5.01093C28.2993 7.1147 26.9006 9.77053 26.6133 12.6835C26.3652 12.5357 26.1109 12.3958 25.8521 12.2615Z"
        fill="#FFDEDE"></path>
    <path
        d="M29.3102 14.7577C29.6807 14.3639 30.2647 13.7799 30.3789 13.6227C32.4504 10.7687 33.9629 6.92518 33.1818 3.38592C32.0604 3.60382 31.195 4.35678 30.2977 5.01085C27.7335 6.87903 26.3407 9.07267 25.9104 12.2823L25.8521 12.2615C25.2619 11.9558 24.6456 11.6848 24.0044 11.453C25.0058 8.01888 28.264 4.09932 31.5569 2.73567C33.2641 2.02851 35.0271 1.58853 35.2537 3.99488C35.7304 9.06504 30.6797 14.9305 30.0895 15.587C29.8414 15.3 29.5815 15.0238 29.3102 14.7577Z"
        fill="#FFC0C0"></path>
    <path
        d="M29.4882 14.07C29.3359 14.2275 29.1853 14.384 29.0565 14.5211C28.7842 14.266 28.5048 14.0176 28.2109 13.7841C28.5062 11.1577 30.025 6.82698 32.9279 6.90679C32.4868 9.80863 30.9233 12.2816 30.0978 13.419C30.0371 13.5026 29.7328 13.817 29.4882 14.07Z"
        fill="#F6A7A8"></path>
    <path d="M33.2655 6.93353L33.2651 6.93492L33.2655 6.93353Z" fill="#F6A7A8"></path>
</svg>